<svg xmlns="http://www.w3.org/2000/svg" width="32" height="23" viewBox="0 0 32 23"><defs><clipPath id="cloth"><path d="M2 3Q9 1 16 3T30 3V20Q23 22 16 20T2 20Z"/></clipPath></defs><g clip-path="url(#cloth)"><path fill="#47725a" d="M1 0h30v23H1z"/><path d="m16 5 11 6.5L16 18 5 11.5Z" fill="#e6bd62"/><circle cx="16" cy="11.5" r="4.3" fill="#506b78"/><path d="M12 10q4-1 8 3" fill="none" stroke="#faf5e6" stroke-width="1"/><path d="m14 13 .4.4m3 .6.4.4m-1-5 .4.4" stroke="#faf5e6" stroke-width=".7"/></g><path d="M2 3Q9 1 16 3T30 3V20Q23 22 16 20T2 20Z" fill="none" stroke="#403e35" stroke-width=".8" stroke-linejoin="round"/></svg>